<svg xmlns="http://www.w3.org/2000/svg" width="56" height="48" viewBox="0 0 56 48"><g transform="translate(-810 -131)"><path d="M35.682,0a11,11,0,0,1,9.5,5.457l7.583,13a11,11,0,0,1,0,11.085l-7.583,13A11,11,0,0,1,35.682,48H20.318a11,11,0,0,1-9.5-5.457l-7.583-13a11,11,0,0,1,0-11.085l7.583-13A11,11,0,0,1,20.318,0Z" transform="translate(810 131)" fill="#fff"/><text transform="translate(838 166)" fill="#20222e" font-size="32" font-family="Montserrat-SemiBold, Montserrat" font-weight="600"><tspan x="-11.696" y="0">R</tspan></text></g></svg>