<svg xmlns="http://www.w3.org/2000/svg" width="24" height="24" viewBox="0 0 24 24"><rect width="10" height="2" rx="1" transform="translate(13) rotate(90)" fill="#20222e"/><path d="M6,2.8A.892.892,0,0,0,4.628,2C1.654,4.009,0,7.453,0,12c0,7.5,4.5,12,12,12s12-4.5,12-12c0-4.547-1.654-7.991-4.628-10A.892.892,0,0,0,18,2.8V2.94a1.078,1.078,0,0,0,.461.865,7.691,7.691,0,0,1,.937.8C21,6.207,22,8.651,22,12s-1,5.793-2.6,7.4S15.349,22,12,22s-5.793-1-7.4-2.6S2,15.349,2,12,3,6.207,4.6,4.6a7.689,7.689,0,0,1,.937-.8A1.077,1.077,0,0,0,6,2.94Z" fill="#20222e" fill-rule="evenodd"/></svg>